<?xml version="1.0" encoding="UTF-8"?>
<svg viewBox="0 0 629 146.66" xmlns="http://www.w3.org/2000/svg" data-type="shape">
    <g>
        <g>
            <path d="M0 142.71h10.33V10.14H0v-3h31v138.58H0zm36.24 0h8.07c7.51 0 10.33-2.82 10.33-10.33l-.19-46.95c0-7.51-4.51-10.14-10.14-10.14h-8.07v-3h8.07c6.57 0 10.89-2.82 10.89-11.45V21.41c0-6.76-2.44-11.27-10.89-11.27h-8.07v-3h8.07c16.69 0 29.86 10.32 29.86 33.61 0 20.84-9.58 29.67-23.1 32.86C68 76.8 80.56 89.76 80.56 109.29c0 22-16.15 36.43-36.24 36.43h-8.08z"/>
            <path d="M98.57 115.67V79.24c0-18.21 12.39-29.48 28.17-31v3c-4.88 1.13-8.45 4.51-8.45 10.89v68.92c0 6.95 1.13 10.52 8.45 12.58v3c-17.65-1.63-28.17-12.93-28.17-30.96zm22.53-21h19.72V62.15c0-6.38-3.57-9.76-8.45-10.89v-3c16 1.31 28.35 12.77 28.35 31v18.4h-39.61zm10.89 49a28.44 28.44 0 0 0 25.35-28h3a31.22 31.22 0 0 1-28.35 31z"/>
            <path d="M173.49 142.71h10.33V3h-10.33V0h29.86v145.72h-29.86zm44.88 0h10.33V60.09c0-4.69-2.25-7.14-5.82-7.14-6.57 0-13.14 6.38-13.52 16.15h-3a21 21 0 0 1 21-20.84c12.77 0 20.84 8.07 20.84 21.78v72.67h10.33v3h-40.16z"/>
            <path d="M271.88 115.3V79.43c0-18 12.39-29.48 28.17-31v3c-4.88 1.31-8.45 3.76-8.45 12.77v66.29c0 9 3.57 11.45 8.45 12.77v3c-15.78-1.48-28.17-12.94-28.17-30.96zm33.43 28c4.88-1.31 8.45-3.75 8.45-12.77V64.22c0-9-3.57-11.45-8.45-12.77v-3c16 1.31 28.35 12.77 28.35 31v35.85c0 18.21-12.39 29.67-28.35 31z"/>
            <path d="M347.17 142.71h10.33V3h-10.33V0H377v142.71h10.52v3h-40.35z"/>
            <path d="M402.18 125.62V69.29c0-12.21 8.26-21 20.84-21 12.77 0 21 9.39 21 21h-3C441 62 435.42 52 427.53 52c-1.13 0-5.63-.19-5.63 6v78.87c0 6.2 4.51 6 5.63 6 7.89 0 13.52-10 13.52-17.28h3c0 11.64-8.26 21-21 21-12.61.07-20.87-8.76-20.87-20.97zm74.74 17.09v3h-29.86V3h-10.33V0h29.86v142.71z"/>
            <path d="M490.43 115.67V79.24c0-18.21 12.39-29.48 28.17-31v3c-4.88 1.13-8.45 4.51-8.45 10.89v68.92c0 6.95 1.13 10.52 8.45 12.58v3c-17.66-1.63-28.17-12.93-28.17-30.96zm22.53-21h19.72V62.15c0-6.38-3.57-9.76-8.45-10.89v-3c16 1.31 28.35 12.77 28.35 31v18.4H513zm10.89 49a28.44 28.44 0 0 0 25.35-28h3a31.22 31.22 0 0 1-28.35 31z"/>
            <path d="M565.34 142.71h10.33V52.2h-10.33v-3h29.86v93.51h14.08v3h-43.94zm40.94-83.18a11.36 11.36 0 1 1 11.27 11.27 11.3 11.3 0 0 1-11.27-11.27z"/>
        </g>
    </g>
</svg>
